<svg width="21" height="22" viewBox="0 0 21 22" xmlns="http://www.w3.org/2000/svg">
<path d="M10.0625 21.5217C9.99819 21.5217 9.93387 21.5077 9.87437 21.4793L0.686875 17.1043C0.534625 17.0316 0.4375 16.8781 0.4375 16.7092V3.14669C0.4375 2.99663 0.5145 2.85707 0.641375 2.77657C0.767812 2.69651 0.9275 2.68732 1.06313 2.75163L10.0625 7.03694L19.0619 2.75119C19.1975 2.68732 19.3563 2.69607 19.4832 2.77657C19.6105 2.85707 19.6875 2.99663 19.6875 3.14669V16.7092C19.6875 16.8781 19.5904 17.0316 19.4381 17.1043L10.2506 21.4793C10.1911 21.5077 10.1268 21.5217 10.0625 21.5217ZM2 16.0002L10.0625 20.0005L18.5 15.8337V4.50049L10.2506 8.57755C10.1321 8.63399 9.99337 8.63399 9.87481 8.57755L2 4.50024V16.0002Z" fill="currentColor"/>
<path d="M9.87641 6.46413L2.24947 2.83245C2.03116 2.72832 1.93885 2.46713 2.04254 2.24926C2.14666 2.03095 2.40741 1.93951 2.62572 2.04188L9.87641 5.49507L17.1271 2.04188C17.3458 1.93951 17.6062 2.03095 17.7103 2.24926C17.814 2.46713 17.7217 2.72832 17.5033 2.83245L9.87641 6.46413Z" fill="currentColor"/>
<path d="M10.9004 8H9.40039V21.0837H10.9004V8Z" fill="currentColor"/>
</svg>
