<svg width="28" height="28" viewBox="0 0 28 28" xmlns="http://www.w3.org/2000/svg">
<path d="M11 21C16.5228 21 21 16.5228 21 11C21 5.47715 16.5228 1 11 1C5.47715 1 1 5.47715 1 11C1 16.5228 5.47715 21 11 21Z" stroke="currentColor" stroke-opacity="0.76" stroke-width="1.5" stroke-miterlimit="10" stroke-linejoin="round" fill="none" />
<path d="M25.9697 27.0303C26.2626 27.3232 26.7374 27.3232 27.0303 27.0303C27.3232 26.7374 27.3232 26.2626 27.0303 25.9697L25.9697 27.0303ZM17.4697 18.5303L25.9697 27.0303L27.0303 25.9697L18.5303 17.4697L17.4697 18.5303Z" fill="currentColor" fill-opacity="0.76"/>
<path d="M6 11H16" stroke="currentColor" stroke-opacity="0.76" stroke-width="1.5" stroke-miterlimit="10" stroke-linejoin="round" fill="none" />
<path d="M11 6V16" stroke="currentColor" stroke-opacity="0.76" stroke-width="1.5" stroke-miterlimit="10" stroke-linejoin="round" fill="none" />
</svg>
