<svg width="200" height="34" viewBox="0 0 200 34" fill="none" xmlns="http://www.w3.org/2000/svg">
<path fill-rule="evenodd" clip-rule="evenodd" d="M17.3084 0.232422H30.5557L38.3913 9.23463H24.632L23.0503 7.54993H9.58789L17.3084 0.232422Z" fill="#0E2244"/>
<path fill-rule="evenodd" clip-rule="evenodd" d="M14.0741 33.0158L7.73828 25.6074H21.3795L23.2126 23.8984H36.8993L27.3244 33.0158H14.0741Z" fill="#0E2244"/>
<path fill-rule="evenodd" clip-rule="evenodd" d="M0 16.6231L7.88716 9.1875H21.3556L13.1958 16.6201L19.7467 23.9347H6.29943L0 16.6231Z" fill="#0E2244"/>
<path fill-rule="evenodd" clip-rule="evenodd" d="M56.6654 17.3931H51.3477C51.0792 17.3799 50.8258 17.2647 50.6394 17.071C50.4529 16.8772 50.3476 16.6196 50.3448 16.3507C50.343 16.2308 50.3593 16.1113 50.3933 15.9962L50.8447 14.666C51.4962 12.8147 53.3627 11.7027 55.3898 11.6875H62.5316L61.968 13.3268H56.9048C55.5776 13.3268 54.4262 13.8085 54.0838 14.8418L54.0657 14.8933L53.996 15.0721C53.9172 15.3145 53.7748 15.8265 53.7748 15.8265H60.1378C60.4059 15.8396 60.6588 15.9544 60.8452 16.1475C61.0315 16.3406 61.1372 16.5975 61.1408 16.8658C61.1426 16.9858 61.1263 17.1053 61.0923 17.2203L60.559 18.7808C59.85 20.3898 58.135 21.526 56.0806 21.5381H48.6328L49.2388 19.808H54.7626C56.0746 19.8171 56.9836 19.3262 57.2866 18.4536L57.3987 18.1506L57.4472 18.0082C57.5043 17.8097 57.5458 17.6071 57.5714 17.4021L56.6654 17.3931Z" fill="#0E2244"/>
<path fill-rule="evenodd" clip-rule="evenodd" d="M33.7949 14.6993C34.4463 12.8479 36.3159 11.7359 38.3551 11.7207H45.5393L44.9757 13.36H39.8549C38.5278 13.36 37.3764 13.8418 37.034 14.875L35.6765 18.9777C35.6585 19.0406 35.6513 19.1062 35.6553 19.1716C35.6559 19.3446 35.7228 19.5109 35.8423 19.636C35.9619 19.7612 36.1248 19.8357 36.2977 19.8443H37.4824C38.8096 19.8443 39.7065 19.3534 40.0186 18.4807L40.3973 17.4172H38.3975L38.9278 15.8628H44.3029L43.288 18.8171C42.5789 20.426 40.8639 21.5623 38.8096 21.5744H33.6313C33.22 21.5728 32.8258 21.4096 32.5338 21.1199C32.2419 20.8302 32.0756 20.4373 32.0708 20.0261C32.0661 19.8366 32.099 19.6481 32.1678 19.4716L33.7949 14.6993Z" fill="#0E2244"/>
<path fill-rule="evenodd" clip-rule="evenodd" d="M21.1597 21.5756C20.9824 21.5802 20.8067 21.5419 20.6474 21.4639C20.4882 21.3859 20.3501 21.2706 20.2451 21.1277C20.14 20.9849 20.0711 20.8187 20.0441 20.6435C20.0171 20.4682 20.0329 20.289 20.0901 20.1212L20.1931 19.8182L22.9838 11.7129H33.6949L33.1313 13.3521H26.3198C26.1565 13.3487 25.9962 13.3954 25.8602 13.4859C25.7243 13.5763 25.6192 13.7062 25.5593 13.8581L24.9199 15.8519H30.5437L30.0164 17.4154H24.3897L23.7837 19.2334C23.7049 19.4758 23.7261 19.8394 24.2988 19.8394H31.2678L30.683 21.5756H21.1597Z" fill="#0E2244"/>
<path fill-rule="evenodd" clip-rule="evenodd" d="M45.4468 21.5748H45.2316C44.9426 21.5721 44.6654 21.4594 44.4566 21.2595C44.2477 21.0597 44.1229 20.7878 44.1075 20.4991C44.106 20.3748 44.1244 20.251 44.162 20.1325L44.256 19.8174L44.3529 19.5447L47.0466 11.709H50.5372L47.1436 21.5627H45.4407L45.4468 21.5748Z" fill="#0E2244"/>
<path d="M70.3488 16.1634H71.3669C71.8684 16.1794 72.3603 16.0233 72.7607 15.721C73.1508 15.41 73.4363 14.9871 73.5788 14.509C73.6622 14.3123 73.7006 14.0996 73.6911 13.8862C73.6817 13.6728 73.6247 13.4643 73.5243 13.2758C73.3223 12.9687 72.9314 12.8152 72.3517 12.8152C71.8802 12.8236 71.4249 12.9888 71.0578 13.2848C70.6507 13.5864 70.352 14.0116 70.2064 14.4969H68.9944V14.4575C69.2155 13.6586 69.7153 12.9653 70.4034 12.5031C71.0739 12.0371 71.8715 11.7885 72.688 11.791C73.5889 11.791 74.2414 12.0314 74.6454 12.5122C75.0494 12.993 75.1151 13.6686 74.8424 14.5393C74.6861 15.0213 74.4195 15.4602 74.0636 15.821C73.6963 16.1967 73.2532 16.4901 72.7638 16.6815C72.9572 16.7597 73.1325 16.8771 73.2785 17.0262C73.4245 17.1753 73.5381 17.353 73.6122 17.5481C73.7557 18.0118 73.7386 18.5103 73.5637 18.9631C73.3192 19.8176 72.7832 20.5595 72.0487 21.0599C71.3021 21.5484 70.4258 21.8007 69.5337 21.7841C69.1907 21.8023 68.8477 21.7475 68.5275 21.6232C68.2073 21.4988 67.9172 21.3079 67.6763 21.0629C67.2259 20.5822 67.1532 19.8903 67.4582 18.9874L67.4854 18.948H68.6975C68.6081 19.1562 68.5674 19.382 68.5785 19.6083C68.5895 19.8346 68.6519 20.0554 68.7611 20.2539C68.8862 20.4184 69.0512 20.5481 69.2405 20.6308C69.4298 20.7136 69.6372 20.7465 69.8428 20.7266C70.3882 20.7321 70.9204 20.5586 71.3578 20.2327C71.798 19.9143 72.1241 19.4628 72.288 18.9449C72.49 18.3187 72.483 17.8673 72.2668 17.5905C72.0507 17.3138 71.6467 17.1764 71.0548 17.1784H70.0125L70.0852 16.9391L70.2276 16.4846L70.2519 16.4118L70.3488 16.1634Z" fill="#0E2244"/>
<path d="M74.0206 20.5994C74.2873 20.5994 74.5781 20.3146 74.8933 19.745C75.3225 18.9108 75.6892 18.0459 75.9901 17.1573L76.981 14.4121H81.026L79.0656 20.6025H79.8231L78.7505 23.9961H77.4809L78.2293 21.6296H74.4206L73.6722 23.9961H72.3965L73.4692 20.6025H74.0206V20.5994ZM77.2597 17.1573C76.9688 17.9532 76.6891 18.635 76.4204 19.2026C76.195 19.6982 75.9145 20.1667 75.5841 20.5994H77.79L79.405 15.5241H77.8536L77.2597 17.1573Z" fill="#0E2244"/>
<path d="M80.9194 17.94C81.2056 16.9362 81.7378 16.0197 82.4677 15.2735C82.7617 14.9636 83.1147 14.7156 83.5061 14.5444C83.8975 14.3732 84.3192 14.2822 84.7463 14.2767C85.0907 14.2485 85.4348 14.3348 85.7252 14.5222C86.0155 14.7095 86.236 14.9875 86.3522 15.3129C86.6269 16.0038 86.5977 16.8784 86.2644 17.9369L86.2068 18.1157C85.9188 19.1176 85.3856 20.032 84.6554 20.7761C84.3621 21.0837 84.0102 21.3296 83.6205 21.4992C83.2307 21.6689 82.811 21.7588 82.3859 21.7639C82.0404 21.792 81.6951 21.7058 81.4033 21.5186C81.1115 21.3314 80.8893 21.0534 80.7709 20.7276C80.4962 20.0428 80.5275 19.1691 80.8648 18.1066L80.9194 17.94ZM82.1314 18.1187C81.8984 18.7243 81.8082 19.3755 81.8678 20.0216C81.8757 20.1239 81.9041 20.2236 81.9511 20.3148C81.9982 20.406 82.063 20.4869 82.1418 20.5527C82.2205 20.6184 82.3117 20.6678 82.4098 20.6978C82.5079 20.7279 82.6111 20.738 82.7132 20.7276C83.1556 20.7276 83.5757 20.4791 83.9737 19.9822C84.4043 19.4205 84.7288 18.7849 84.9311 18.1066L84.9887 17.9278C85.213 17.3233 85.2989 16.6762 85.2402 16.0341C85.236 15.9317 85.2113 15.8313 85.1673 15.7387C85.1234 15.6462 85.0612 15.5635 84.9845 15.4956C84.9078 15.4277 84.8182 15.3759 84.7211 15.3435C84.6239 15.3111 84.5212 15.2986 84.4191 15.3069C83.9686 15.3069 83.5434 15.5584 83.1434 16.0613C82.7137 16.619 82.3921 17.252 82.195 17.9278L82.1314 18.1187Z" fill="#0E2244"/>
<path d="M91.8276 18.2457C91.5563 19.2039 91.0739 20.0891 90.4156 20.8364C90.1721 21.1207 89.8713 21.3505 89.533 21.5108C89.1947 21.6711 88.8264 21.7582 88.4521 21.7666C88.168 21.7782 87.8873 21.7009 87.6492 21.5454C87.4293 21.3843 87.2669 21.1571 87.1856 20.897L86.0705 24.4027H84.7949L87.9552 14.4036H89.0369L88.8824 15.2732C89.1387 14.9735 89.4465 14.7221 89.7914 14.5309C90.102 14.362 90.4499 14.2735 90.8034 14.2733C91.1145 14.2567 91.4207 14.3559 91.663 14.5517C91.9053 14.7476 92.0665 15.0262 92.1154 15.3338C92.3033 16.0408 92.2174 16.963 91.8579 18.1003L91.8276 18.2457ZM90.5974 18.1063C90.8357 17.4605 90.9388 16.7726 90.9004 16.0853C90.8398 15.5823 90.5843 15.3308 90.1338 15.3308C89.8478 15.3342 89.5697 15.4252 89.3369 15.5914C89.0661 15.7805 88.8303 16.0153 88.64 16.2853L87.4946 19.894C87.5052 20.1284 87.5999 20.351 87.7613 20.5212C87.9426 20.679 88.179 20.7585 88.4188 20.7424C88.6604 20.7285 88.8955 20.6589 89.1058 20.5391C89.316 20.4192 89.4957 20.2524 89.6308 20.0516C90.0432 19.5067 90.3514 18.8904 90.5398 18.2336L90.5974 18.1063Z" fill="#0E2244"/>
<path d="M92.2436 17.939C92.5298 16.9352 93.062 16.0187 93.7919 15.2725C94.0861 14.9631 94.4393 14.7158 94.8307 14.5451C95.222 14.3744 95.6436 14.2838 96.0705 14.2787C96.4149 14.2505 96.759 14.3368 97.0494 14.5242C97.3398 14.7116 97.5602 14.9895 97.6764 15.315C97.9512 16.0058 97.9219 16.8805 97.5886 17.939L97.531 18.1177C97.2428 19.1196 96.7096 20.0339 95.9796 20.7781C95.6863 21.0857 95.3344 21.3316 94.9447 21.5013C94.5549 21.6709 94.1352 21.7609 93.7101 21.7659C93.3642 21.7938 93.0187 21.7072 92.7268 21.5194C92.435 21.3316 92.213 21.053 92.0951 20.7266C91.8204 20.0418 91.8517 19.1681 92.1891 18.1056L92.2436 17.939ZM93.4556 18.1177C93.2225 18.7233 93.1323 19.3745 93.192 20.0206C93.1999 20.1229 93.2283 20.2226 93.2753 20.3138C93.3224 20.405 93.3872 20.4859 93.466 20.5517C93.5448 20.6174 93.6359 20.6668 93.734 20.6968C93.8321 20.7269 93.9353 20.737 94.0374 20.7266C94.4798 20.7266 94.8999 20.4781 95.2979 19.9812C95.7285 19.4195 96.053 18.7839 96.2553 18.1056L96.3129 17.9268C96.5372 17.3223 96.6231 16.6752 96.5644 16.0331C96.5603 15.9307 96.5355 15.8303 96.4915 15.7377C96.4476 15.6452 96.3854 15.5625 96.3087 15.4946C96.232 15.4267 96.1424 15.3749 96.0453 15.3425C95.9481 15.3101 95.8454 15.2976 95.7433 15.3059C95.2928 15.3059 94.8676 15.5574 94.4676 16.0603C94.0379 16.6179 93.7162 17.251 93.5192 17.9268L93.4556 18.1177Z" fill="#0E2244"/>
<path d="M97.0425 21.6364L99.3271 14.4219H101.673C102.41 14.4219 102.945 14.5896 103.278 14.9249C103.612 15.2602 103.677 15.7501 103.475 16.3945C103.36 16.7495 103.163 17.0724 102.9 17.3368C102.63 17.6115 102.3 17.8191 101.936 17.9428C102.104 17.9752 102.261 18.0471 102.396 18.1525C102.53 18.2579 102.637 18.3937 102.709 18.5488C102.836 18.8898 102.836 19.2652 102.709 19.6063C102.536 20.2295 102.152 20.773 101.621 21.1425C101.062 21.4898 100.412 21.6627 99.7543 21.6394H97.0273L97.0425 21.6364ZM99.315 18.4609L98.6332 20.6213H100.085C100.391 20.629 100.691 20.5305 100.933 20.3426C101.189 20.1276 101.372 19.8386 101.457 19.5154C101.514 19.3896 101.543 19.2533 101.543 19.1154C101.543 18.9775 101.514 18.8412 101.457 18.7155C101.375 18.6136 101.268 18.5348 101.147 18.487C101.025 18.4392 100.893 18.4239 100.764 18.4427H99.312L99.315 18.4609ZM99.618 17.5065H100.77C101.083 17.5115 101.39 17.4194 101.648 17.2429C101.9 17.0541 102.083 16.788 102.169 16.4854C102.228 16.3599 102.255 16.2219 102.248 16.0835C102.242 15.9451 102.201 15.8105 102.13 15.6915C102.025 15.5966 101.9 15.5256 101.764 15.4832C101.629 15.4409 101.486 15.4282 101.345 15.4461H100.27L99.618 17.5065Z" fill="#0E2244"/>
<path d="M105.442 17.09H106.73C107.435 17.09 107.94 17.3021 108.245 17.7263C108.394 17.9659 108.484 18.2377 108.507 18.5191C108.53 18.8006 108.486 19.0834 108.378 19.3443C108.182 20.0078 107.78 20.5916 107.23 21.0108C106.673 21.4223 105.995 21.6357 105.303 21.6168H102.736L105.021 14.4023H106.296L105.442 17.09ZM105.109 18.1293L104.327 20.6048H105.615C105.952 20.6091 106.278 20.482 106.524 20.2503C106.783 20.0096 106.975 19.7058 107.081 19.3685C107.186 19.0818 107.186 18.7675 107.081 18.4807C107.017 18.3566 106.915 18.2557 106.791 18.1922C106.667 18.1286 106.525 18.1055 106.387 18.1262H105.093L105.109 18.1293Z" fill="#0E2244"/>
<path d="M110.553 21.7663C109.745 21.7663 109.199 21.434 108.916 20.7694C108.634 20.1048 108.657 19.2524 108.986 18.2121L109.086 17.9091C109.368 16.9169 109.893 16.0108 110.613 15.2729C110.893 14.9718 111.23 14.7294 111.605 14.5598C111.979 14.3903 112.384 14.2969 112.795 14.2852C113.536 14.2852 114.022 14.5801 114.252 15.1699C114.482 15.7598 114.445 16.5395 114.14 17.5091L113.901 18.2696H110.237C110.016 18.8484 109.946 19.4743 110.034 20.0877C110.076 20.2962 110.195 20.4812 110.368 20.605C110.54 20.7288 110.754 20.7822 110.965 20.7543C111.298 20.7562 111.629 20.6956 111.94 20.5755C112.266 20.4494 112.573 20.2769 112.849 20.0634L112.995 20.9027C112.665 21.1655 112.297 21.377 111.904 21.5299C111.473 21.6954 111.014 21.7757 110.553 21.7663ZM112.477 15.3154C112.274 15.3304 112.077 15.3885 111.899 15.4857C111.721 15.5829 111.566 15.7169 111.443 15.8789C111.083 16.2863 110.802 16.7568 110.613 17.2667V17.3H112.958L113.01 17.1455C113.175 16.7216 113.228 16.2626 113.164 15.8123C113.137 15.6565 113.05 15.5176 112.921 15.4253C112.793 15.333 112.633 15.2946 112.477 15.3184V15.3154Z" fill="#0E2244"/>
<path d="M114.757 21.6356H113.475L113.903 20.2812H115.184L114.757 21.6356Z" fill="#0E2244"/>
<path d="M121.333 17.2663H120.727L119.352 21.6356H118.076L121.152 11.9395H122.43L121.094 16.1543H121.745L125.191 11.9395H126.836L122.521 16.7391L123.866 21.6356H122.403L121.333 17.2663Z" fill="#0E2244"/>
<path d="M127.94 21.6362C127.95 21.4342 127.968 21.2433 127.994 21.0635C128.02 20.8857 128.056 20.7096 128.103 20.5363C127.822 20.8829 127.488 21.1825 127.113 21.4241C126.783 21.6479 126.396 21.771 125.998 21.7786C125.418 21.7786 125.021 21.5867 124.807 21.2029C124.593 20.8191 124.593 20.2979 124.807 19.6394C124.992 18.9725 125.406 18.3922 125.976 18.0002C126.59 17.6064 127.308 17.4078 128.037 17.4305H129.073L129.309 16.6912C129.449 16.361 129.47 15.993 129.37 15.6489C129.309 15.5263 129.211 15.4259 129.089 15.3618C128.968 15.2977 128.83 15.2731 128.694 15.2913C128.387 15.2952 128.092 15.4104 127.864 15.6155C127.608 15.8298 127.419 16.1141 127.322 16.4336H126.11V16.3973C126.286 15.7906 126.666 15.2631 127.185 14.9035C127.736 14.4893 128.408 14.2698 129.097 14.2793C129.368 14.256 129.639 14.3019 129.887 14.4127C130.134 14.5235 130.35 14.6955 130.512 14.9126C130.805 15.3348 130.831 15.9327 130.591 16.7063L129.525 20.0394C129.438 20.3033 129.368 20.5725 129.315 20.8454C129.269 21.0985 129.242 21.3547 129.234 21.612H127.946L127.94 21.6362ZM126.585 20.7272C126.952 20.7164 127.307 20.595 127.604 20.3787C127.93 20.1653 128.204 19.8816 128.406 19.5485L128.794 18.2729H127.737C127.355 18.2756 126.987 18.4191 126.704 18.6759C126.405 18.9259 126.184 19.256 126.067 19.6273C125.958 19.8838 125.946 20.1716 126.034 20.4363C126.084 20.5359 126.165 20.6174 126.263 20.6695C126.362 20.7216 126.475 20.7418 126.585 20.7272Z" fill="#0E2244"/>
<path d="M134.589 21.6368H133.307L134.137 19.0219C133.947 19.0781 133.754 19.1216 133.559 19.1522C133.378 19.18 133.196 19.1942 133.013 19.1946C132.252 19.1946 131.721 18.9724 131.422 18.528C131.123 18.0836 131.123 17.3948 131.422 16.4615L132.071 14.4223H133.34L132.692 16.4615C132.49 17.1059 132.442 17.5503 132.55 17.7947C132.657 18.0391 132.92 18.1583 133.34 18.1523C133.526 18.1515 133.712 18.1342 133.895 18.1008C134.089 18.0662 134.28 18.0186 134.468 17.9583L135.592 14.4102H136.873L134.589 21.6368Z" fill="#0E2244"/>
<path d="M137.793 21.7663C136.985 21.7663 136.44 21.434 136.157 20.7694C135.874 20.1048 135.898 19.2524 136.227 18.2121L136.327 17.9091C136.612 16.9157 137.141 16.0095 137.866 15.2729C138.146 14.9718 138.483 14.7294 138.858 14.5598C139.232 14.3903 139.637 14.2969 140.048 14.2852C140.789 14.2852 141.275 14.5801 141.505 15.1699C141.736 15.7598 141.698 16.5395 141.393 17.5091L141.154 18.2696H137.481C137.26 18.8484 137.19 19.4743 137.278 20.0877C137.32 20.2962 137.439 20.4812 137.612 20.605C137.784 20.7288 137.998 20.7822 138.209 20.7543C138.542 20.7562 138.873 20.6956 139.184 20.5755C139.51 20.4494 139.816 20.2769 140.093 20.0634L140.239 20.9027C139.909 21.1655 139.541 21.377 139.148 21.5299C138.716 21.6958 138.256 21.7761 137.793 21.7663ZM139.718 15.3154C139.515 15.3304 139.318 15.3885 139.14 15.4857C138.962 15.5829 138.807 15.7169 138.684 15.8789C138.322 16.2896 138.039 16.7644 137.851 17.2788V17.3122H140.196L140.248 17.1576C140.413 16.7338 140.466 16.2747 140.402 15.8244C140.378 15.667 140.292 15.5256 140.164 15.4309C140.036 15.3362 139.875 15.2958 139.718 15.3184V15.3154Z" fill="#0E2244"/>
<path d="M143.217 20.7274C143.558 20.7149 143.883 20.5755 144.126 20.3365C144.438 20.0557 144.666 19.6938 144.784 19.2912H145.92V19.3305C145.722 20.0238 145.304 20.6341 144.729 21.0698C144.212 21.4988 143.565 21.7392 142.893 21.7515C142.085 21.7515 141.558 21.4081 141.311 20.7213C141.065 20.0345 141.102 19.173 141.423 18.1367L141.505 17.8822C141.791 16.898 142.311 15.9977 143.02 15.2582C143.308 14.9467 143.656 14.6975 144.044 14.526C144.432 14.3546 144.851 14.2645 145.275 14.2613C145.555 14.2419 145.836 14.3028 146.083 14.437C146.331 14.5711 146.535 14.7729 146.671 15.0188C146.952 15.5117 146.969 16.152 146.723 16.9399H145.52C145.674 16.5638 145.701 16.1482 145.599 15.7551C145.554 15.6185 145.465 15.501 145.345 15.4217C145.225 15.3425 145.081 15.3062 144.938 15.3188C144.484 15.3188 144.067 15.5683 143.687 16.0672C143.28 16.621 142.972 17.2413 142.778 17.9004L142.696 18.1549C142.475 18.7563 142.378 19.3965 142.411 20.0365C142.415 20.1361 142.44 20.2338 142.483 20.3235C142.526 20.4131 142.588 20.4929 142.664 20.5577C142.739 20.6226 142.827 20.6711 142.923 20.7003C143.018 20.7295 143.118 20.7387 143.217 20.7274Z" fill="#0E2244"/>
<path d="M152.394 15.4461H150.482L148.522 21.6364H147.246L149.207 15.4551H147.325L147.652 14.4219H152.731L152.394 15.4461Z" fill="#0E2244"/>
<path d="M150.912 21.6364L153.197 14.4219H155.542C156.28 14.4219 156.815 14.5896 157.148 14.9249C157.482 15.2602 157.547 15.7501 157.345 16.3945C157.23 16.7495 157.033 17.0724 156.77 17.3368C156.5 17.6115 156.17 17.8191 155.806 17.9428C155.974 17.9752 156.131 18.0471 156.266 18.1525C156.4 18.2579 156.507 18.3937 156.579 18.5488C156.706 18.8898 156.706 19.2652 156.579 19.6063C156.406 20.2295 156.022 20.773 155.491 21.1425C154.936 21.4858 154.292 21.6576 153.64 21.6364H150.912ZM153.185 18.4609L152.503 20.6213H153.955C154.261 20.629 154.561 20.5305 154.803 20.3426C155.061 20.1286 155.247 19.8395 155.333 19.5154C155.39 19.3896 155.419 19.2533 155.419 19.1154C155.419 18.9775 155.39 18.8412 155.333 18.7155C155.251 18.6136 155.144 18.5348 155.023 18.487C154.901 18.4392 154.769 18.4239 154.639 18.4427H153.188L153.185 18.4609ZM153.488 17.5065H154.639C154.953 17.5115 155.26 17.4194 155.518 17.2429C155.772 17.0549 155.957 16.7888 156.045 16.4854C156.104 16.3598 156.131 16.2219 156.124 16.0835C156.117 15.9452 156.077 15.8106 156.006 15.6915C155.9 15.5966 155.776 15.5256 155.64 15.4832C155.505 15.4409 155.362 15.4282 155.221 15.4461H154.146L153.488 17.5065Z" fill="#0E2244"/>
<path d="M157.443 17.94C157.729 16.9362 158.262 16.0197 158.992 15.2735C159.285 14.9636 159.639 14.7156 160.03 14.5444C160.421 14.3732 160.843 14.2822 161.27 14.2767C161.615 14.2485 161.959 14.3348 162.249 14.5222C162.539 14.7095 162.76 14.9875 162.876 15.3129C163.151 16.0038 163.121 16.8784 162.788 17.9369L162.731 18.1157C162.442 19.1175 161.909 20.0318 161.179 20.7761C160.886 21.0837 160.534 21.3296 160.144 21.4992C159.755 21.6689 159.335 21.7588 158.91 21.7639C158.564 21.792 158.219 21.7058 157.927 21.5186C157.635 21.3314 157.413 21.0534 157.295 20.7276C157.02 20.0428 157.051 19.1691 157.389 18.1066L157.443 17.94ZM158.655 18.1187C158.422 18.7243 158.332 19.3755 158.392 20.0216C158.4 20.1242 158.428 20.2242 158.475 20.3156C158.522 20.407 158.588 20.488 158.667 20.5538C158.746 20.6197 158.837 20.6689 158.936 20.6988C159.034 20.7286 159.138 20.7384 159.24 20.7276C159.682 20.7276 160.103 20.4791 160.501 19.9822C160.931 19.4205 161.256 18.7849 161.458 18.1066L161.519 17.94C161.743 17.3354 161.829 16.6883 161.77 16.0462C161.766 15.9438 161.741 15.8434 161.697 15.7509C161.653 15.6583 161.591 15.5756 161.514 15.5077C161.438 15.4398 161.348 15.3881 161.251 15.3556C161.154 15.3232 161.051 15.3107 160.949 15.319C160.498 15.319 160.073 15.5705 159.673 16.0735C159.244 16.6311 158.922 17.2641 158.725 17.94L158.655 18.1187Z" fill="#0E2244"/>
<path d="M163.605 21.6356H162.324L162.751 20.2812H164.033L163.605 21.6356Z" fill="#0E2244"/>
<path d="M173.38 17.2185H172.992L171.595 21.6363H170.326L171.723 17.2276H171.299L167.832 21.6363H166.244L170.532 16.4247L169.487 11.916H171.032L171.677 16.1307H172.065L173.401 11.916H174.671L173.335 16.1307H173.704L176.971 11.916H178.51L174.647 16.4125L175.622 21.6363H174.035L173.38 17.2185Z" fill="#0E2244"/>
<path d="M181.705 14.4121H182.98L180.696 21.6357H179.42L180.971 16.7392H180.935L177.102 21.6357H175.832L178.117 14.4212H179.396L177.835 19.3298H177.872L181.705 14.4121Z" fill="#0E2244"/>
<path d="M184.158 17.4669H185.176C185.502 17.4764 185.823 17.3761 186.085 17.1821C186.338 16.9858 186.523 16.7142 186.612 16.4064C186.665 16.2784 186.69 16.1407 186.686 16.0023C186.682 15.8639 186.648 15.728 186.588 15.6034C186.501 15.4901 186.385 15.4022 186.252 15.3489C186.119 15.2956 185.975 15.2789 185.834 15.3004C185.497 15.3146 185.173 15.4298 184.903 15.6308C184.632 15.8318 184.429 16.1094 184.319 16.4276H183.107V16.3882C183.281 15.7605 183.683 15.2204 184.234 14.8732C184.793 14.5025 185.45 14.3073 186.121 14.3126C186.843 14.3126 187.373 14.4944 187.712 14.858C188.052 15.2216 188.118 15.7266 187.912 16.373C187.799 16.7238 187.603 17.0426 187.343 17.3033C187.07 17.5785 186.744 17.7951 186.385 17.9396C186.528 17.9998 186.657 18.0879 186.765 18.1987C186.873 18.3095 186.958 18.4408 187.015 18.585C187.123 18.9223 187.115 19.2863 186.991 19.6182C186.793 20.2768 186.362 20.841 185.779 21.2059C185.172 21.5813 184.469 21.7738 183.755 21.7604C183.473 21.7761 183.19 21.7336 182.925 21.6356C182.659 21.5376 182.417 21.3862 182.213 21.1908C181.837 20.811 181.769 20.2697 182.01 19.5667L182.031 19.5273H183.243C183.182 19.6729 183.155 19.8305 183.164 19.9882C183.174 20.1458 183.219 20.2991 183.297 20.4363C183.389 20.5601 183.512 20.6576 183.654 20.7193C183.795 20.7809 183.95 20.8045 184.103 20.7878C184.469 20.783 184.823 20.6549 185.106 20.4242C185.392 20.2108 185.604 19.913 185.712 19.5727C185.84 19.1687 185.83 18.8748 185.682 18.691C185.573 18.5897 185.444 18.5134 185.302 18.4673C185.161 18.4213 185.011 18.4066 184.864 18.4244H183.849L183.934 18.1577L184.073 17.7244L184.158 17.4669Z" fill="#0E2244"/>
<path d="M191.819 21.6364H190.543L191.516 18.5458H189.216L188.249 21.6364H186.971L189.255 14.4219H190.531L189.546 17.5307H191.846L192.831 14.4219H194.107L191.819 21.6364Z" fill="#0E2244"/>
<path d="M195.438 17.09H196.725C197.43 17.09 197.935 17.3021 198.24 17.7263C198.39 17.9659 198.48 18.2377 198.503 18.5191C198.526 18.8006 198.482 19.0834 198.374 19.3443C198.178 20.0078 197.776 20.5916 197.225 21.0108C196.669 21.4223 195.99 21.6357 195.298 21.6168H192.729L195.013 14.4023H196.289L195.438 17.09ZM195.104 18.1293L194.323 20.6048H195.61C195.948 20.6091 196.274 20.482 196.519 20.2503C196.778 20.0096 196.971 19.7058 197.077 19.3685C197.181 19.0818 197.181 18.7675 197.077 18.4807C197.013 18.3566 196.911 18.2557 196.787 18.1922C196.662 18.1286 196.521 18.1055 196.383 18.1262H195.089L195.104 18.1293Z" fill="#0E2244"/>
<path d="M199.557 21.6356H198.275L198.702 20.2812H199.999L199.557 21.6356Z" fill="#0E2244"/>
</svg>
