<svg width="38" height="37" viewBox="0 0 38 37" fill="none" xmlns="http://www.w3.org/2000/svg">
<g clip-path="url(#clip0_909_4864)">
<path fill-rule="evenodd" clip-rule="evenodd" d="M17.8296 2.50548C17.2831 1.64937 16.0103 1.65002 15.4651 2.50516L15.4651 2.50518L1.60903 24.2348C1.60902 24.2349 1.60901 24.2349 1.609 24.2349C1.0302 25.1428 1.69766 26.3201 2.79117 26.3201H19.7299C20.1147 26.3201 20.4266 26.6253 20.4266 27.0019C20.4266 27.3784 20.1147 27.6837 19.7299 27.6837H2.79117C0.603536 27.6837 -0.731124 25.3292 0.426738 23.5131L0.426764 23.513L14.2828 1.78335C14.2828 1.78334 14.2828 1.78334 14.2828 1.78333C15.3739 0.0722446 17.9186 0.0725986 19.0109 1.78214C19.0111 1.78244 19.0113 1.78273 19.0115 1.78302L26.2008 12.9761C26.4055 13.2949 26.3074 13.7157 25.9816 13.9161C25.6558 14.1165 25.2257 14.0205 25.0209 13.7017L17.8306 2.50707L17.8296 2.50548Z" fill="black"/>
<path fill-rule="evenodd" clip-rule="evenodd" d="M21.9238 23.2759C21.9238 18.8126 25.5228 15.1943 29.9623 15.1943C34.4018 15.1943 38.0008 18.8126 38.0008 23.2759C38.0008 27.7393 34.4018 31.3576 29.9623 31.3576C25.5228 31.3576 21.9238 27.7393 21.9238 23.2759ZM29.9623 16.5643C26.2754 16.5643 23.2865 19.5692 23.2865 23.2759C23.2865 26.9827 26.2754 29.9876 29.9623 29.9876C33.6493 29.9876 36.6381 26.9827 36.6381 23.2759C36.6381 19.5692 33.6493 16.5643 29.9623 16.5643Z" fill="#369B43"/>
<path fill-rule="evenodd" clip-rule="evenodd" d="M23.2441 27.1905C23.545 27.4301 24.5863 27.7727 24.3338 28.0583L20.0001 33.0005L19.0006 32.0005M23.2441 27.1905C23.4966 26.9049 22.9432 26.9509 23.2441 27.1905V27.1905ZM19.0006 32.0005L23.2441 27.1905L19.0006 32.0005ZM19.0006 32.0005C18.0665 32.9359 18.083 34.9107 19.2859 35.8689C20.4895 36.8276 22.2842 36.6774 23.2938 35.5357L27.6031 30.6622C27.8556 30.3766 27.8164 29.9508 27.5155 29.7112C27.2146 29.4715 26.766 29.5087 26.5135 29.7943L22.2042 34.6678C20.0001 36.0005 19.0006 32.0005 19.0006 32.0005Z" fill="#369B43"/>
<path fill-rule="evenodd" clip-rule="evenodd" d="M29.1718 19.2477C29.3341 19.5618 29.1472 19.9216 28.7544 20.0514C27.4288 20.4893 26.4776 21.5022 26.3834 22.6986C26.3568 23.0378 25.9912 23.2955 25.567 23.2741C25.1428 23.2528 24.8206 22.9605 24.8472 22.6214C24.9794 20.9422 26.3135 19.5262 28.1666 18.914C28.5594 18.7842 29.0095 18.9336 29.1718 19.2477Z" fill="#369B43"/>
<path fill-rule="evenodd" clip-rule="evenodd" d="M16.8069 8.58203C17.2105 8.58203 17.5377 8.88504 17.5377 9.25882V18.191C17.5377 18.5647 17.2105 18.8677 16.8069 18.8677C16.4033 18.8677 16.0762 18.5647 16.0762 18.191V9.25882C16.0762 8.88504 16.4033 8.58203 16.8069 8.58203Z" fill="black"/>
<path fill-rule="evenodd" clip-rule="evenodd" d="M16.8069 21.0713C17.2105 21.0713 17.5377 21.3797 17.5377 21.7601V22.5866C17.5377 22.967 17.2105 23.2754 16.8069 23.2754C16.4033 23.2754 16.0762 22.967 16.0762 22.5866V21.7601C16.0762 21.3797 16.4033 21.0713 16.8069 21.0713Z" fill="black"/>
</g>
<defs>
<clipPath id="clip0_909_4864">
<rect width="38" height="36" fill="white" transform="translate(0 0.5)"/>
</clipPath>
</defs>
</svg>
