<svg width="78" height="55" viewBox="0 0 78 55" fill="none" xmlns="http://www.w3.org/2000/svg">
<path d="M37.5 3.5C39.2281 5.89547 50.0623 10.3372 55 10.3372C55 18.3136 55 22.0313 55 28.8953C55 35.5165 38.4868 45.2424 37.5 45.5C36.5132 45.2424 20 35.5165 20 28.8953C20 22.0313 20 18.3136 20 10.3372C24.9377 10.3372 35.7719 5.89669 37.5 3.5Z" stroke="black" stroke-width="2" stroke-miterlimit="10" stroke-linecap="round" stroke-linejoin="round"/>
<path d="M43 29.5C42.395 29.5 41.7269 29.5 41 29.5" stroke="#369B43" stroke-width="2" stroke-miterlimit="10" stroke-linecap="round" stroke-linejoin="round"/>
<path d="M45 24.5C45 25.1915 45 25.8659 45 26.5" stroke="#369B43" stroke-width="2" stroke-miterlimit="10" stroke-linecap="round" stroke-linejoin="round"/>
<path d="M40 16.5C39.3666 16.5 38.6921 16.5 38 16.5" stroke="#369B43" stroke-width="2" stroke-miterlimit="10" stroke-linecap="round" stroke-linejoin="round"/>
<path d="M44 18.5C43.6981 18.5 43.3629 18.5 43 18.5" stroke="#369B43" stroke-width="2" stroke-miterlimit="10" stroke-linecap="round" stroke-linejoin="round"/>
<path d="M34 30.5C34.9502 31.0815 35.9619 31.4279 37 31.5" stroke="#369B43" stroke-width="2" stroke-miterlimit="10" stroke-linecap="round" stroke-linejoin="round"/>
<path d="M30 28.5C30.2956 28.8671 30.6326 29.2014 31 29.5" stroke="#369B43" stroke-width="2" stroke-miterlimit="10" stroke-linecap="round" stroke-linejoin="round"/>
<path d="M32 17.5027C31.3066 18.061 30.7074 18.7394 30.2182 19.5L27 17.5" stroke="#369B43" stroke-width="2" stroke-miterlimit="10" stroke-linecap="round" stroke-linejoin="round"/>
<path d="M29 22.5C29 22.1596 29 21.8246 29 21.5" stroke="#369B43" stroke-width="2" stroke-miterlimit="10" stroke-linecap="round" stroke-linejoin="round"/>
<path d="M28 16.5L27 18.5" stroke="#369B43" stroke-width="2" stroke-miterlimit="10" stroke-linecap="round" stroke-linejoin="round"/>
<path d="M31 25.5L27 27.5" stroke="#369B43" stroke-width="2" stroke-miterlimit="10" stroke-linecap="round" stroke-linejoin="round"/>
<path d="M27 26.5V27.5" stroke="#369B43" stroke-width="2" stroke-miterlimit="10" stroke-linecap="round" stroke-linejoin="round"/>
<path d="M34 21.5V22.5" stroke="#369B43" stroke-width="2" stroke-miterlimit="10" stroke-linecap="round" stroke-linejoin="round"/>
<path d="M35 27.5V28.5" stroke="#369B43" stroke-width="2" stroke-miterlimit="10" stroke-linecap="round" stroke-linejoin="round"/>
<path d="M36 22.5V24.5" stroke="#369B43" stroke-width="2" stroke-miterlimit="10" stroke-linecap="round" stroke-linejoin="round"/>
<path d="M39 19.5V20.5" stroke="#369B43" stroke-width="2" stroke-miterlimit="10" stroke-linecap="round" stroke-linejoin="round"/>
<path d="M40 24.5V25.5" stroke="#369B43" stroke-width="2" stroke-miterlimit="10" stroke-linecap="round" stroke-linejoin="round"/>
<path d="M38 29.5L40 34.5" stroke="#369B43" stroke-width="2" stroke-miterlimit="10" stroke-linecap="round" stroke-linejoin="round"/>
<path d="M39 34.5L41 33.5" stroke="#369B43" stroke-width="2" stroke-miterlimit="10" stroke-linecap="round" stroke-linejoin="round"/>
<path d="M43 21.5L48 20.5" stroke="#369B43" stroke-width="2" stroke-miterlimit="10" stroke-linecap="round" stroke-linejoin="round"/>
<path d="M48 21.5L47 19.5" stroke="#369B43" stroke-width="2" stroke-miterlimit="10" stroke-linecap="round" stroke-linejoin="round"/>
<path d="M35 18.5V13.5" stroke="#369B43" stroke-width="2" stroke-miterlimit="10" stroke-linecap="round" stroke-linejoin="round"/>
<path d="M35 13.5H34" stroke="#369B43" stroke-width="2" stroke-miterlimit="10" stroke-linecap="round" stroke-linejoin="round"/>
<path d="M34 30.5L32 35.5" stroke="#369B43" stroke-width="2" stroke-miterlimit="10" stroke-linecap="round" stroke-linejoin="round"/>
<path d="M31 35.5H34" stroke="#369B43" stroke-width="2" stroke-miterlimit="10" stroke-linecap="round" stroke-linejoin="round"/>
<path d="M46 28.5L49 30.5" stroke="#369B43" stroke-width="2" stroke-miterlimit="10" stroke-linecap="round" stroke-linejoin="round"/>
<path d="M48 28.5L49 27.5" stroke="#369B43" stroke-width="2" stroke-miterlimit="10" stroke-linecap="round" stroke-linejoin="round"/>
<path d="M40 16.5L41 12.5" stroke="#369B43" stroke-width="2" stroke-miterlimit="10" stroke-linecap="round" stroke-linejoin="round"/>
<path d="M43 12.5H41" stroke="#369B43" stroke-width="2" stroke-miterlimit="10" stroke-linecap="round" stroke-linejoin="round"/>
</svg>
