<svg width="78" height="55" viewBox="0 0 78 55" fill="none" xmlns="http://www.w3.org/2000/svg">
<path d="M39.9182 38H19.5207C17.5452 38 16.3397 35.8798 17.3854 34.2446L34.0707 8.15554C35.056 6.61482 37.355 6.61482 38.3415 8.15554L47 21.596" stroke="black" stroke-width="2" stroke-miterlimit="10" stroke-linecap="round" stroke-linejoin="round"/>
<path d="M52 42C56.9706 42 61 37.9705 61 33C61 28.0294 56.9706 24 52 24C47.0295 24 43 28.0294 43 33C43 37.9705 47.0295 42 52 42Z" stroke="#369B43" stroke-width="2" stroke-miterlimit="10" stroke-linecap="round" stroke-linejoin="round"/>
<path d="M48 41.1751L43.1986 47.1177C42.3547 48.1621 40.8548 48.2991 39.8494 47.4226C38.844 46.5462 38.712 44.9883 39.5559 43.944L44.3573 38" stroke="#369B43" stroke-width="2" stroke-miterlimit="10" stroke-linecap="round" stroke-linejoin="round"/>
<path d="M47 33C47.1193 30.7374 48.3241 28.8263 50 28" stroke="#369B43" stroke-width="2" stroke-miterlimit="10" stroke-linecap="round" stroke-linejoin="round"/>
<path d="M36 16V27" stroke="black" stroke-width="2" stroke-miterlimit="10" stroke-linecap="round" stroke-linejoin="round"/>
<path d="M36 31V32" stroke="black" stroke-width="2" stroke-miterlimit="10" stroke-linecap="round" stroke-linejoin="round"/>
</svg>
