<svg width="78" height="55" viewBox="0 0 78 55" fill="none" xmlns="http://www.w3.org/2000/svg">
<path fill-rule="evenodd" clip-rule="evenodd" d="M23.9761 26.689C25.1534 25.6479 26.519 24.9473 28 24.9473C29.475 24.9473 30.8356 25.6423 32.0095 26.6763C33.186 27.7126 34.2338 29.1382 35.1072 30.7361C36.4023 33.1052 37.3532 35.925 37.7684 38.5965C37.9189 39.5645 38 40.5195 38 41.432V41.458C38 43.0617 38 44.642 37.8524 46.0891C37.7039 47.5453 37.4009 48.9312 36.7551 50.128C35.4067 52.6269 32.7455 53.9999 28 53.9999C25.9012 53.9999 24.2095 53.7341 22.8533 53.2136C21.2937 52.615 20.2013 51.6878 19.4617 50.5016C18.7338 49.3339 18.3774 47.9632 18.1959 46.5151C18 44.9522 18 43.2216 18 41.4647L18 41.432C18 38.0329 19.1264 33.9835 20.8714 30.7752C21.7457 29.1676 22.7961 27.7325 23.9761 26.689ZM34.1658 32.5006C34.005 32.1647 33.8371 31.8362 33.6626 31.517L34.3849 31.1265L34.9662 31.7046L34.1658 32.5006ZM36.0761 38.4401C35.7231 36.436 35.0536 34.3552 34.1658 32.5006L19.882 46.7047C19.8623 46.5763 19.8442 46.4456 19.8276 46.3128C19.7586 45.7624 19.7155 45.186 19.6887 44.5845L33.3621 30.9875C33.464 31.1604 33.5642 31.337 33.6626 31.517L34.3849 31.1265L33.8036 30.5484L33.3621 30.9875C32.6213 29.7306 31.7906 28.6678 30.9193 27.9003C29.9256 27.0251 28.9372 26.5824 28 26.5824C27.059 26.5824 26.0663 27.0287 25.0687 27.9109C24.0737 28.7907 23.1323 30.0552 22.3177 31.553C20.6848 34.5554 19.6443 38.3396 19.6443 41.432C19.6443 42.5463 19.6447 43.5989 19.6887 44.5845L18.4304 45.8358L19.5931 46.992L19.882 46.7047C20.0589 47.8619 20.3611 48.8411 20.8592 49.64C21.3273 50.3907 21.9897 51.0171 22.962 51.481L22.568 51.8728L23.1494 52.4509L23.7307 53.029L24.7068 52.0583C25.6133 52.2553 26.6987 52.3648 28 52.3648C32.4323 52.3648 34.3601 51.1083 35.3062 49.3549C35.8076 48.4256 36.0782 47.2796 36.2165 45.9241C36.3549 44.5672 36.3557 43.065 36.3557 41.432C36.3557 41.1294 36.3458 40.8196 36.3261 40.5039L37.5373 39.2995L36.3746 38.1433L36.0761 38.4401ZM36.3261 40.5039C36.2927 39.9662 36.2313 39.4114 36.1434 38.8462C36.1225 38.7113 36.1 38.5759 36.0761 38.4401L22.962 51.481C23.1153 51.5541 23.2762 51.6232 23.4454 51.6881C23.8219 51.8327 24.2407 51.957 24.7068 52.0583L36.3261 40.5039Z" fill="#369B43"/>
<path fill-rule="evenodd" clip-rule="evenodd" d="M43.6008 11.2285C44.0426 11.2285 44.4008 11.5427 44.4008 11.9302V13.7549C44.4008 14.1424 44.0426 14.4566 43.6008 14.4566C43.159 14.4566 42.8008 14.1424 42.8008 13.7549V11.9302C42.8008 11.5427 43.159 11.2285 43.6008 11.2285Z" fill="black"/>
<path fill-rule="evenodd" clip-rule="evenodd" d="M54.8008 26.5609C54.8008 26.1152 55.1901 25.7539 55.6703 25.7539H57.9313C58.4115 25.7539 58.8008 26.1152 58.8008 26.5609C58.8008 27.0066 58.4115 27.3679 57.9313 27.3679H55.6703C55.1901 27.3679 54.8008 27.0066 54.8008 26.5609Z" fill="black"/>
<path fill-rule="evenodd" clip-rule="evenodd" d="M43.6008 38.666C44.0426 38.666 44.4008 38.9802 44.4008 39.3677V41.1924C44.4008 41.5799 44.0426 41.8941 43.6008 41.8941C43.159 41.8941 42.8008 41.5799 42.8008 41.1924V39.3677C42.8008 38.9802 43.159 38.666 43.6008 38.666Z" fill="black"/>
<path fill-rule="evenodd" clip-rule="evenodd" d="M52.1637 18.7209C52.4777 19.0259 52.4777 19.5203 52.1637 19.8253L43.7995 27.9477C43.4855 28.2526 42.9764 28.2526 42.6623 27.9477L37.4347 22.8712C37.1207 22.5662 37.1207 22.0718 37.4347 21.7668C37.7488 21.4619 38.2579 21.4619 38.572 21.7668L43.2309 26.2911L51.0265 18.7209C51.3405 18.4159 51.8497 18.4159 52.1637 18.7209Z" fill="black"/>
<path fill-rule="evenodd" clip-rule="evenodd" d="M43.5551 9.60685C37.9065 9.60685 32.9118 12.3978 29.8477 16.6986C29.5908 17.0592 29.092 17.1419 28.7337 16.8834C28.3753 16.6248 28.2931 16.1229 28.55 15.7623C31.9011 11.0587 37.37 8 43.5551 8C53.7433 8 62.0004 16.309 62.0004 26.5614C62.0004 36.8138 53.7433 45.1228 43.5551 45.1228C43.1471 45.1228 42.7402 45.112 42.3279 45.0784C41.8884 45.0425 41.561 44.655 41.5967 44.2127C41.6323 43.7704 42.0175 43.441 42.457 43.4768C42.8129 43.5058 43.1742 43.516 43.5551 43.516C52.8614 43.516 60.4036 35.9264 60.4036 26.5614C60.4036 17.1964 52.8614 9.60685 43.5551 9.60685Z" fill="black"/>
</svg>
