<svg width="78" height="55" viewBox="0 0 78 55" fill="none" xmlns="http://www.w3.org/2000/svg">
<path d="M58.0001 43C61.3138 43 64 40.3137 64 37C64 33.6863 61.3138 31 58.0001 31C54.6863 31 52 33.6863 52 37C52 40.3137 54.6863 43 58.0001 43Z" stroke="black" stroke-width="2" stroke-miterlimit="10"/>
<path d="M40.849 40.7745C41.5529 37.8204 39.7287 34.8549 36.7746 34.151C33.8204 33.4471 30.8549 35.2713 30.151 38.2254C29.4471 41.1796 31.2713 44.1451 34.2255 44.849C37.1796 45.5529 40.1451 43.7287 40.849 40.7745Z" stroke="black" stroke-width="2" stroke-miterlimit="10"/>
<path d="M45.5168 29.7001C47.5603 28.8624 48.5378 26.5267 47.7001 24.4832C46.8625 22.4397 44.5267 21.4622 42.4832 22.2999C40.4397 23.1376 39.4622 25.4733 40.2999 27.5168C41.1376 29.5603 43.4732 30.5378 45.5168 29.7001Z" stroke="black" stroke-width="2" stroke-miterlimit="10"/>
<path d="M54 24C55.6569 24 57 22.6568 57 21C57 19.3432 55.6569 18 54 18C52.3432 18 51 19.3432 51 21C51 22.6568 52.3432 24 54 24Z" stroke="black" stroke-width="2" stroke-miterlimit="10"/>
<path d="M26 20L21 25" stroke="black" stroke-width="2" stroke-miterlimit="10"/>
<path d="M35 19L40 24" stroke="black" stroke-width="2" stroke-miterlimit="10"/>
<path d="M47 29L54 34" stroke="black" stroke-width="2" stroke-miterlimit="10"/>
<path d="M41 30L38 34" stroke="black" stroke-width="2" stroke-miterlimit="10"/>
<path d="M47 24L52 22" stroke="black" stroke-width="2" stroke-miterlimit="10"/>
<path d="M34.2758 20.4991C36.4845 18.4138 36.5844 14.9328 34.4991 12.7242C32.4138 10.5155 28.9328 10.4155 26.7242 12.5009C24.5155 14.5862 24.4155 18.0671 26.5009 20.2758C28.5862 22.4845 32.0672 22.5845 34.2758 20.4991Z" stroke="#369B43" stroke-width="2" stroke-miterlimit="10"/>
<path d="M21.9543 29.0606C22.2639 27.1529 20.9684 25.3553 19.0606 25.0457C17.1529 24.7361 15.3553 26.0316 15.0457 27.9394C14.7361 29.8471 16.0316 31.6446 17.9394 31.9543C19.8471 32.2639 21.6447 30.9684 21.9543 29.0606Z" stroke="#369B43" stroke-width="2" stroke-miterlimit="10"/>
</svg>
