<svg width="78" height="55" viewBox="0 0 78 55" fill="none" xmlns="http://www.w3.org/2000/svg">
<path d="M55.5 18.5L54.5 20.5" stroke="#369B43" stroke-width="2" stroke-linecap="round"/>
<path d="M60 22L58 24" stroke="#369B43" stroke-width="2" stroke-linecap="round"/>
<path d="M60 27L61 26" stroke="#369B43" stroke-width="2" stroke-linecap="round"/>
<path d="M60 31H63" stroke="#369B43" stroke-width="2" stroke-linecap="round"/>
<path d="M59 34L61 35" stroke="#369B43" stroke-width="2" stroke-linecap="round"/>
<path d="M57 38L60 40" stroke="#369B43" stroke-width="2" stroke-linecap="round"/>
<path d="M54 41L55 43" stroke="#369B43" stroke-width="2" stroke-linecap="round"/>
<path d="M39 8C42.0685 8.64135 47.5599 10.6164 47.2193 13.7722C46.8906 16.8186 44.4796 16.7651 43.6028 16.3376C47.1645 17.7806 54.6167 24.7392 53.9592 32.0506C53.3016 39.362 48.4796 41.083 46.3974 42.1519C45.9042 42.4191 45.0165 43.5629 45.4111 46" stroke="black" stroke-width="2" stroke-linecap="round"/>
<path d="M26.0517 8C25.9947 10.6411 26.5638 16.2468 27.4194 18.6723C28.4602 21.6229 31.38 27.9426 29.5 31.5C27.5708 35.1506 24.0004 37.5883 24 41.634C23.9996 45.0298 24.3986 45.7844 24.3416 46" stroke="black" stroke-width="2" stroke-linecap="round"/>
</svg>
