<svg width="50" height="50" viewBox="0 0 50 50" fill="none" xmlns="http://www.w3.org/2000/svg">
<path fill-rule="evenodd" clip-rule="evenodd" d="M21 33.0955C24.2149 33.0955 26.8211 30.4893 26.8211 27.2744C26.8211 24.0595 24.2149 21.4534 21 21.4534C17.7851 21.4534 15.1789 24.0595 15.1789 27.2744C15.1789 30.4893 17.7851 33.0955 21 33.0955ZM21 34.2744C24.866 34.2744 28 31.1404 28 27.2744C28 23.4084 24.866 20.2744 21 20.2744C17.134 20.2744 14 23.4084 14 27.2744C14 31.1404 17.134 34.2744 21 34.2744Z" fill="black"/>
<path fill-rule="evenodd" clip-rule="evenodd" d="M27.7575 17.9165C25.5356 15.6946 21.9332 15.6946 19.7112 17.9165C17.4893 20.1384 17.4893 23.7408 19.7112 25.9628C21.9332 28.1847 25.5356 28.1847 27.7575 25.9628C29.9794 23.7408 29.9794 20.1384 27.7575 17.9165ZM28.601 17.073C25.9132 14.3853 21.5555 14.3853 18.8678 17.073C16.18 19.7608 16.18 24.1185 18.8678 26.8062C21.5555 29.494 25.9132 29.494 28.601 26.8062C31.2887 24.1185 31.2887 19.7608 28.601 17.073Z" fill="black"/>
<path fill-rule="evenodd" clip-rule="evenodd" d="M20.625 33.2744C20.9702 33.2744 21.25 33.5549 21.25 33.9009V45.6479C21.25 45.9939 20.9702 46.2744 20.625 46.2744C20.2798 46.2744 20 45.9939 20 45.6479V33.9009C20 33.5549 20.2798 33.2744 20.625 33.2744Z" fill="black"/>
<path fill-rule="evenodd" clip-rule="evenodd" d="M28.0996 17.8555C27.8679 17.6213 27.87 17.2437 28.1041 17.012L35.737 9.46089C35.9711 9.22923 36.3487 9.23126 36.5804 9.46543C36.8121 9.69959 36.81 10.0772 36.5759 10.3089L28.9431 17.86C28.7089 18.0917 28.3313 18.0896 28.0996 17.8555Z" fill="black"/>
<path fill-rule="evenodd" clip-rule="evenodd" d="M16.5 40.8994C16.5 40.5542 16.7985 40.2744 17.1667 40.2744H23.8333C24.2015 40.2744 24.5 40.5542 24.5 40.8994C24.5 41.2446 24.2015 41.5244 23.8333 41.5244H17.1667C16.7985 41.5244 16.5 41.2446 16.5 40.8994Z" fill="black"/>
<path fill-rule="evenodd" clip-rule="evenodd" d="M36.6776 9.29603C36.9136 9.38071 37.0502 9.68962 36.9828 9.986L35.8718 14.8695C35.8044 15.1659 35.5584 15.3375 35.3224 15.2528C35.0864 15.1681 34.9498 14.8592 35.0172 14.5628L36.1282 9.67935C36.1956 9.38297 36.4416 9.21135 36.6776 9.29603Z" fill="black"/>
<path fill-rule="evenodd" clip-rule="evenodd" d="M36.9943 9.80281C37.0379 10.1392 36.8259 10.4509 36.5207 10.499L31.6371 11.2682C31.332 11.3162 31.0493 11.0824 31.0057 10.746C30.9621 10.4096 31.1741 10.0979 31.4793 10.0498L36.3629 9.28068C36.668 9.23262 36.9507 9.46638 36.9943 9.80281Z" fill="black"/>
</svg>
