<svg width="50" height="50" viewBox="0 0 50 50" fill="none" xmlns="http://www.w3.org/2000/svg">
<g clip-path="url(#clip0_909_6155)">
<path fill-rule="evenodd" clip-rule="evenodd" d="M37.9227 24.049C38.1392 24.049 38.2605 24.268 38.2605 24.4471V24.5529C38.2605 24.732 38.1392 24.951 37.9227 24.951H21.0773C20.8608 24.951 20.7395 24.732 20.7395 24.5529V24.4471C20.7395 24.268 20.8608 24.049 21.0773 24.049H37.9227ZM39 24.4471C39 23.6072 38.4877 23 37.9227 23H21.0773C20.5123 23 20 23.6072 20 24.4471V24.5529C20 25.3929 20.5123 26 21.0773 26H37.9227C38.4877 26 39 25.3929 39 24.5529V24.4471Z" fill="black"/>
<path fill-rule="evenodd" clip-rule="evenodd" d="M20.1394 25L15.5999 25L15.5968 25C15.4906 25.0009 15.3132 25.0147 15.1714 25.1357C14.9802 25.2988 14.9826 25.5268 15.02 25.6676C15.0533 25.7931 15.1241 25.9087 15.188 25.9999C15.2569 26.0983 15.3441 26.2045 15.4408 26.3149C15.6147 26.5132 15.8416 26.7498 16.0931 27.012C16.1206 27.0406 16.1483 27.0695 16.1763 27.0987C16.464 27.3988 16.7858 27.7367 17.118 28.1094C18.4642 29.62 19.8944 31.6136 19.895 33.774C19.8773 36.4681 17.8588 38.5245 17.1409 39.2558C17.1144 39.2828 17.0897 39.308 17.0669 39.3314C16.9576 39.4434 16.9249 39.6119 16.984 39.7582C17.0431 39.9046 17.1825 40 17.3371 40H34.7196L34.7233 40C34.7946 39.9993 34.9005 39.9942 34.9989 39.9545C35.0523 39.933 35.1335 39.8894 35.1972 39.801C35.268 39.7029 35.2876 39.5909 35.2771 39.4941C35.2607 39.3433 35.1717 39.2341 35.1407 39.1961C35.0948 39.1399 35.0379 39.0831 34.9826 39.0304C34.9217 38.9725 34.8529 38.9101 34.7774 38.8415C34.5636 38.6474 34.2958 38.4044 34.0011 38.0756C33.2212 37.2056 32.3211 35.7998 32.3096 33.6145C32.3113 33.3772 32.3467 33.0085 32.3844 32.6845C32.3999 32.552 32.4152 32.4305 32.4279 32.3337C35.4267 31.0651 37.7357 28.5007 38.9685 25.584C39.0196 25.463 39.008 25.3239 38.9375 25.2136C38.867 25.1034 38.7472 25.0369 38.6186 25.0367L20.1394 25ZM32.0801 32.0547C31.7021 31.9974 31.7021 31.9974 31.7021 31.9975L31.7003 32.0101L31.6954 32.0448C31.6912 32.0749 31.6852 32.1181 31.6781 32.1716C31.6638 32.2785 31.6447 32.4267 31.6255 32.5917C31.5878 32.9155 31.5471 33.3253 31.5453 33.6117L31.5453 33.6162C31.5574 36.0511 32.5697 37.6366 33.4382 38.6055C33.6516 38.8435 33.8609 39.0486 34.0404 39.2167H18.2452C19.1825 38.1766 20.6438 36.2277 20.6593 33.7778L20.6593 33.7752C20.6593 31.289 19.0335 29.0973 17.6824 27.5812C17.3402 27.1972 17.01 26.8507 16.7216 26.5498C16.6942 26.5212 16.6672 26.4931 16.6407 26.4655C16.385 26.199 16.171 25.9758 16.0094 25.7914C16.007 25.7887 16.0046 25.786 16.0022 25.7833H20.1394L38.0209 25.8187C36.7805 28.4037 34.6402 30.6138 31.9416 31.6897C31.8136 31.7407 31.7221 31.8582 31.7021 31.9975L32.0801 32.0547ZM15.5689 25.7857C15.569 25.7858 15.5713 25.7856 15.5752 25.7846C15.5708 25.7851 15.5688 25.7856 15.5689 25.7857ZM34.5564 39.701C34.56 39.7068 34.5624 39.7099 34.5627 39.71C34.5631 39.71 34.5612 39.7071 34.5564 39.701Z" fill="black"/>
<path fill-rule="evenodd" clip-rule="evenodd" d="M17.484 9.78949C17.8856 9.78949 18.2076 10.1104 18.2076 10.5105V11.2018C18.2076 11.4198 18.385 11.5965 18.6038 11.5965C18.8226 11.5965 19 11.4198 19 11.2018V10.5105C19 9.67438 18.3232 9 17.484 9H12.5161C11.6769 9 11 9.67434 11 10.5105V24.4895C11 25.3257 11.6769 26 12.5161 26H17.484C18.3232 26 19 25.3256 19 24.4895V13.3239C19 13.1059 18.8226 12.9292 18.6038 12.9292C18.385 12.9292 18.2076 13.1059 18.2076 13.3239V24.4895C18.2076 24.8896 17.8856 25.2105 17.484 25.2105H12.5161C12.1145 25.2105 11.7924 24.8896 11.7924 24.4895V10.5105C11.7924 10.1104 12.1145 9.78949 12.5161 9.78949H17.484Z" fill="black"/>
<path fill-rule="evenodd" clip-rule="evenodd" d="M19.763 11.5968C20.0116 11.5968 20.1509 11.7213 20.1509 11.8232V12.1768C20.1509 12.2787 20.0116 12.4032 19.763 12.4032H16.237C15.9884 12.4032 15.8491 12.2787 15.8491 12.1768V11.8232C15.8491 11.7213 15.9884 11.5968 16.237 11.5968H19.763ZM21 11.8232C21 11.3454 20.4118 11 19.763 11H16.237C15.5881 11 15 11.3454 15 11.8232V12.1768C15 12.6546 15.5881 13 16.237 13H19.763C20.4118 13 21 12.6546 21 12.1768V11.8232Z" fill="black"/>
<path fill-rule="evenodd" clip-rule="evenodd" d="M36.8338 26.0627C36.6642 25.9464 36.437 25.9965 36.3262 26.1746C36.0778 26.5741 35.828 26.9374 35.5772 27.2695C35.4514 27.4361 35.478 27.6784 35.6366 27.8106C35.7953 27.9428 36.026 27.9149 36.1518 27.7483C36.4172 27.3969 36.6801 27.0143 36.9403 26.5959C37.051 26.4178 37.0033 26.1791 36.8338 26.0627ZM35.25 28.2714C35.106 28.1218 34.8738 28.123 34.7314 28.2742C34.5781 28.4369 34.4244 28.5903 34.2704 28.7354C34.1196 28.8774 34.1069 29.1209 34.2422 29.2793C34.3774 29.4377 34.6092 29.451 34.76 29.3089C34.9248 29.1537 35.0891 28.9898 35.2527 28.8162C35.3951 28.665 35.3939 28.4211 35.25 28.2714ZM33.7839 29.6606C33.6676 29.4864 33.4389 29.4442 33.2731 29.5663C32.9143 29.8305 32.5525 30.0638 32.1875 30.2787C32.0108 30.3827 31.9479 30.6175 32.0469 30.8031C32.1459 30.9887 32.3694 31.0548 32.5461 30.9507C32.9284 30.7257 33.3116 30.4788 33.6941 30.1972C33.8599 30.0751 33.9001 29.8348 33.7839 29.6606Z" fill="black"/>
</g>
<defs>
<clipPath id="clip0_909_6155">
<rect width="28.001" height="31.0001" fill="white" transform="matrix(-1 0 0 1 39 9)"/>
</clipPath>
</defs>
</svg>
