<svg width="50" height="50" viewBox="0 0 50 50" fill="none" xmlns="http://www.w3.org/2000/svg">
<path fill-rule="evenodd" clip-rule="evenodd" d="M29.6299 24.1572C29.7471 24.0895 29.8977 24.1151 29.9935 24.219C31.0831 25.3996 32.2096 25.9853 33.2825 26.5431C33.3492 26.5778 33.4157 26.6123 33.4819 26.6469C34.6097 27.2357 35.6876 27.8406 36.4476 29.157C37.4953 30.9717 36.8633 33.0844 35.3039 33.9848C33.7444 34.8851 31.5987 34.376 30.551 32.5613C29.791 31.245 29.8061 30.0091 29.8601 28.738C29.8632 28.6633 29.8666 28.5884 29.8699 28.5134C29.9233 27.3054 29.9793 26.0369 29.5016 24.503C29.4596 24.368 29.5127 24.2249 29.6299 24.1572ZM30.4501 28.788C30.3964 30.0539 30.3959 31.1254 31.0564 32.2695C31.929 33.7809 33.7073 34.2011 34.9984 33.4557C36.2895 32.7103 36.8147 30.9601 35.9422 29.4488C35.2816 28.3046 34.3534 27.7693 33.2302 27.1829C33.1613 27.1469 33.0916 27.1107 33.0213 27.0742C32.1781 26.6362 31.2454 26.1517 30.317 25.3472C30.5495 26.5535 30.5027 27.6035 30.4604 28.5527C30.4569 28.6318 30.4534 28.7103 30.4501 28.788Z" fill="black" stroke="black" stroke-width="0.3" stroke-miterlimit="10" stroke-linecap="round" stroke-linejoin="round"/>
<path fill-rule="evenodd" clip-rule="evenodd" d="M32.1985 31.3082C32.3577 31.2524 32.5316 31.335 32.5868 31.4926C32.8316 32.1914 33.5903 32.5535 34.2769 32.3129C34.4361 32.2572 34.6099 32.3397 34.6652 32.4974C34.7204 32.655 34.6361 32.828 34.4768 32.8838C33.4643 33.2385 32.3628 32.7012 32.0101 31.6946C31.9549 31.537 32.0392 31.364 32.1985 31.3082Z" fill="#369B43"/>
<path fill-rule="evenodd" clip-rule="evenodd" d="M13.9483 22.7021C14.0655 22.6344 14.216 22.66 14.3119 22.7639C15.4014 23.9446 16.528 24.5302 17.6009 25.088C17.6675 25.1227 17.734 25.1572 17.8003 25.1918C18.9281 25.7807 20.0059 26.3855 20.7659 27.7019C21.8136 29.5166 21.1817 31.6293 19.6222 32.5297C18.0628 33.43 15.9171 32.921 14.8694 31.1063C14.1094 29.7899 14.1245 28.554 14.1784 27.2829C14.1816 27.2082 14.1849 27.1334 14.1882 27.0583C14.2416 25.8503 14.2977 24.5818 13.82 23.0479C13.7779 22.9129 13.8311 22.7698 13.9483 22.7021ZM14.7684 27.3329C14.7147 28.5988 14.7142 29.6703 15.3748 30.8145C16.2474 32.3258 18.0257 32.746 19.3168 32.0006C20.6079 31.2552 21.1331 29.505 20.2605 27.9937C19.6 26.8496 18.6717 26.3142 17.5486 25.7278C17.4796 25.6918 17.41 25.6556 17.3397 25.6191C16.4965 25.1811 15.5637 24.6967 14.6353 23.8921C14.8679 25.0984 14.8211 26.1484 14.7788 27.0977C14.7752 27.1768 14.7717 27.2552 14.7684 27.3329Z" fill="black" stroke="black" stroke-width="0.3" stroke-miterlimit="10" stroke-linecap="round" stroke-linejoin="round"/>
<path fill-rule="evenodd" clip-rule="evenodd" d="M23.0425 32.1791C23.1237 32.1323 23.228 32.15 23.2945 32.2219C24.0493 33.0399 24.8298 33.4457 25.573 33.8321C25.6192 33.8561 25.6653 33.88 25.7112 33.904C26.4925 34.3119 27.2392 34.731 27.7658 35.6429C28.4916 36.9001 28.0538 38.3639 26.9734 38.9876C25.893 39.6114 24.4065 39.2587 23.6807 38.0015C23.1542 37.0895 23.1646 36.2333 23.202 35.3527C23.2042 35.3009 23.2065 35.2491 23.2088 35.1971C23.2458 34.3602 23.2846 33.4814 22.9537 32.4187C22.9245 32.3252 22.9613 32.226 23.0425 32.1791ZM23.6108 35.3873C23.5735 36.2643 23.5732 37.0067 24.0308 37.7993C24.6353 38.8463 25.8673 39.1375 26.7618 38.6211C27.6563 38.1047 28.0201 36.8921 27.4156 35.8451C26.958 35.0525 26.3149 34.6816 25.5368 34.2753C25.489 34.2504 25.4408 34.2253 25.3921 34.2C24.8079 33.8966 24.1617 33.5609 23.5185 33.0036C23.6796 33.8393 23.6472 34.5667 23.6179 35.2243C23.6155 35.2791 23.613 35.3335 23.6108 35.3873Z" fill="black" stroke="black" stroke-width="0.5" stroke-miterlimit="10" stroke-linecap="round" stroke-linejoin="round"/>
<path fill-rule="evenodd" clip-rule="evenodd" d="M16.5149 29.8541C16.6741 29.7983 16.848 29.8809 16.9032 30.0385C17.148 30.7373 17.9067 31.0994 18.5933 30.8588C18.7525 30.8031 18.9263 30.8856 18.9816 31.0433C19.0368 31.2009 18.9525 31.3739 18.7932 31.4297C17.7807 31.7844 16.6792 31.2471 16.3266 30.2405C16.2713 30.0829 16.3556 29.9099 16.5149 29.8541Z" fill="#369B43"/>
<path fill-rule="evenodd" clip-rule="evenodd" d="M24.8208 37.1332C24.9311 37.0945 25.0516 37.1517 25.0898 37.2609C25.2595 37.7451 25.7851 37.9959 26.2607 37.8292C26.371 37.7906 26.4915 37.8478 26.5297 37.957C26.568 38.0662 26.5096 38.1861 26.3993 38.2247C25.6978 38.4705 24.9347 38.0983 24.6904 37.4009C24.6521 37.2917 24.7105 37.1718 24.8208 37.1332Z" fill="#369B43"/>
<path fill-rule="evenodd" clip-rule="evenodd" d="M29.6138 34.4236C29.7006 34.3735 29.8121 34.3924 29.8831 34.4694C30.6903 35.344 31.5248 35.7779 32.3196 36.1911C32.369 36.2167 32.4182 36.2423 32.4673 36.268C33.3028 36.7042 34.1013 37.1523 34.6643 38.1274C35.4404 39.4717 34.9723 41.0369 33.817 41.7039C32.6618 42.3708 31.0723 41.9937 30.2961 40.6494C29.7331 39.6742 29.7443 38.7587 29.7843 37.817C29.7866 37.7617 29.7891 37.7063 29.7915 37.6506C29.8311 36.7558 29.8726 35.8161 29.5187 34.6798C29.4876 34.5798 29.5269 34.4737 29.6138 34.4236ZM30.2214 37.8541C30.1816 38.7918 30.1812 39.5856 30.6705 40.4332C31.3169 41.5528 32.6343 41.8641 33.5908 41.3119C34.5472 40.7597 34.9363 39.4632 34.2899 38.3436C33.8005 37.496 33.1129 37.0994 32.2809 36.665C32.2298 36.6383 32.1782 36.6115 32.1261 36.5845C31.5015 36.2601 30.8105 35.9012 30.1227 35.3051C30.295 36.1988 30.2603 36.9766 30.229 37.6798C30.2264 37.7384 30.2238 37.7965 30.2214 37.8541Z" fill="black" stroke="black" stroke-width="0.5" stroke-miterlimit="10" stroke-linecap="round" stroke-linejoin="round"/>
<path fill-rule="evenodd" clip-rule="evenodd" d="M31.5144 39.7211C31.6323 39.6798 31.7611 39.7409 31.802 39.8577C31.9834 40.3754 32.5454 40.6436 33.054 40.4654C33.172 40.4241 33.3008 40.4852 33.3417 40.602C33.3826 40.7188 33.3201 40.847 33.2022 40.8883C32.4521 41.1511 31.6361 40.7531 31.3749 40.0073C31.3339 39.8906 31.3964 39.7624 31.5144 39.7211Z" fill="#369B43"/>
<path fill-rule="evenodd" clip-rule="evenodd" d="M22.8579 24.4332C22.9317 24.3906 23.0266 24.4067 23.087 24.4722C23.7736 25.2162 24.4835 25.5852 25.1595 25.9367C25.2015 25.9585 25.2434 25.9803 25.2852 26.0021C25.9959 26.3732 26.6751 26.7543 27.154 27.5838C27.8142 28.7274 27.416 30.0587 26.4333 30.6261C25.4506 31.1934 24.0985 30.8726 23.4383 29.7291C22.9594 28.8996 22.9689 28.1208 23.0029 27.3198C23.0049 27.2727 23.007 27.2256 23.0091 27.1783C23.0427 26.417 23.078 25.6177 22.777 24.6511C22.7505 24.5661 22.784 24.4759 22.8579 24.4332ZM23.3747 27.3513C23.3408 28.149 23.3405 28.8242 23.7568 29.5452C24.3066 30.4976 25.4272 30.7624 26.2408 30.2927C27.0544 29.8229 27.3853 28.7201 26.8355 27.7677C26.4192 27.0467 25.8343 26.7094 25.1266 26.3399C25.0831 26.3172 25.0392 26.2944 24.9949 26.2714C24.4636 25.9954 23.8758 25.6901 23.2908 25.1831C23.4373 25.9433 23.4078 26.6049 23.3812 27.2031C23.379 27.2529 23.3768 27.3023 23.3747 27.3513Z" fill="black" stroke="black" stroke-width="0.5" stroke-miterlimit="10" stroke-linecap="round" stroke-linejoin="round"/>
<path fill-rule="evenodd" clip-rule="evenodd" d="M21.9483 13.7021C22.0655 13.6344 22.216 13.66 22.3119 13.7639C23.4014 14.9446 24.528 15.5302 25.6009 16.088C25.6675 16.1227 25.734 16.1572 25.8003 16.1918C26.9281 16.7807 28.0059 17.3855 28.7659 18.7019C29.8136 20.5166 29.1817 22.6293 27.6222 23.5297C26.0628 24.43 23.9171 23.921 22.8694 22.1063C22.1094 20.7899 22.1245 19.554 22.1784 18.2829C22.1816 18.2082 22.1849 18.1334 22.1882 18.0583C22.2416 16.8503 22.2977 15.5818 21.82 14.0479C21.7779 13.9129 21.8311 13.7698 21.9483 13.7021ZM22.7684 18.3329C22.7147 19.5988 22.7142 20.6703 23.3748 21.8145C24.2474 23.3258 26.0257 23.746 27.3168 23.0006C28.6079 22.2552 29.1331 20.505 28.2605 18.9937C27.6 17.8496 26.6717 17.3142 25.5486 16.7278C25.4796 16.6918 25.41 16.6556 25.3397 16.6191C24.4965 16.1811 23.5637 15.6967 22.6353 14.8921C22.8679 16.0984 22.8211 17.1484 22.7788 18.0977C22.7752 18.1768 22.7717 18.2552 22.7684 18.3329Z" fill="black" stroke="black" stroke-width="0.3" stroke-miterlimit="10" stroke-linecap="round" stroke-linejoin="round"/>
<path fill-rule="evenodd" clip-rule="evenodd" d="M24.4766 28.9403C24.5769 28.9051 24.6865 28.9571 24.7213 29.0565C24.8756 29.4968 25.3536 29.725 25.7863 29.5734C25.8866 29.5383 25.9962 29.5903 26.031 29.6896C26.0658 29.789 26.0127 29.898 25.9123 29.9331C25.2743 30.1567 24.5802 29.8181 24.3579 29.1838C24.3231 29.0844 24.3763 28.9754 24.4766 28.9403Z" fill="#369B43"/>
<path fill-rule="evenodd" clip-rule="evenodd" d="M24.5149 20.8541C24.6741 20.7983 24.848 20.8809 24.9032 21.0385C25.148 21.7373 25.9067 22.0994 26.5933 21.8588C26.7525 21.8031 26.9263 21.8856 26.9816 22.0433C27.0368 22.2009 26.9525 22.3739 26.7932 22.4297C25.7807 22.7844 24.6792 22.2471 24.3266 21.2405C24.2713 21.0829 24.3556 20.9099 24.5149 20.8541Z" fill="#369B43"/>
</svg>
