<svg width="50" height="50" viewBox="0 0 50 50" fill="none" xmlns="http://www.w3.org/2000/svg">
<path d="M24.5004 15.245C22.2974 15.245 20.2968 13.4638 19.7441 11.0103L20.9303 10.7432C21.3591 12.6459 22.8601 14.0271 24.5004 14.0271C26.1406 14.0271 27.6417 12.6459 28.0704 10.7432L29.2566 11.0103C28.7052 13.4638 26.7046 15.245 24.5004 15.245Z" fill="black"/>
<path d="M15.5 27H33L37 43H12L15.5 27Z" fill="url(#paint0_radial_909_745)"/>
<path d="M13.2166 42.9975H12C12 38.2033 13.7338 34.7636 15.1262 32L16.2112 32.5482C14.8087 35.3346 13.2166 38.4932 13.2166 42.9975Z" fill="black"/>
<path d="M18.2847 28.4051L17.1389 27.9962C17.598 26.7074 17.8117 25.5566 17.8117 24.3742C17.8117 22.6132 17.3058 21.3688 16.7696 20.0521L16.6406 19.7331L17.7674 19.2773L17.8952 19.5926C18.4516 20.9611 19.027 22.3752 19.027 24.3742C19.027 25.7009 18.7905 26.9808 18.2847 28.4051Z" fill="black"/>
<path d="M17.812 33.5043V32.2864C17.9511 32.2864 18.0864 32.2636 18.2166 32.2168C18.7022 32.0446 19.0285 31.5825 19.0285 31.0685C19.0285 30.7027 18.8641 30.4355 18.7263 30.2773L13.7715 24.6298L16.756 19.0936C17.4085 18.3796 17.8132 17.2542 17.8132 16.1566C17.8132 14.9235 17.296 13.7816 16.3943 13.0258L17.1759 12.0928C18.3532 13.0815 19.0298 14.5627 19.0298 16.1566C19.0298 17.5162 18.524 18.9253 17.707 19.8558L15.2422 24.4601L19.6419 29.4759C20.0314 29.9254 20.2451 30.49 20.2451 31.0685C20.2451 32.0965 19.5938 33.0181 18.6251 33.3637C18.3621 33.4574 18.0889 33.5043 17.812 33.5043Z" fill="black"/>
<path d="M36.6594 42.6349H35.4428C35.4428 38.1609 33.9405 35.1808 32.4874 32.3007L32.4355 32.1956L33.5206 31.6475L33.5737 31.7513C35.0913 34.7592 36.6594 37.871 36.6594 42.6349Z" fill="black"/>
<path d="M30.7175 28.4101C30.1952 26.9859 29.9727 25.7794 29.9727 24.3742C29.9727 22.3752 30.5481 20.9611 31.1045 19.5926L31.2322 19.2773L32.359 19.7331L32.23 20.0521C31.6938 21.3688 31.188 22.6145 31.188 24.3742C31.188 25.6275 31.389 26.7087 31.8582 27.9898L30.7175 28.4101Z" fill="black"/>
<path d="M31.1877 33.5047C30.9095 33.5047 30.6364 33.4578 30.3759 33.3654C29.4071 33.0211 28.7559 32.0982 28.7559 31.0702C28.7559 30.4929 28.9696 29.9283 29.3553 29.4814L33.7587 24.4631L31.294 19.8587C30.477 18.9282 29.9712 17.5191 29.9712 16.1595C29.9712 14.5656 30.6465 13.0832 31.8239 12.0957L32.6054 13.0287C31.7037 13.7858 31.1865 14.9264 31.1865 16.1595C31.1865 17.2571 31.5912 18.3825 32.2437 19.0966L32.331 19.2193L35.2282 24.6327L30.2709 30.2827C30.1356 30.4385 29.9712 30.7056 29.9712 31.0714C29.9712 31.5854 30.2975 32.0463 30.7831 32.2197C30.9121 32.2665 31.0486 32.2893 31.1877 32.2893V33.5047Z" fill="black"/>
<path d="M17.8126 33.5046C17.2359 33.5046 16.6719 33.2907 16.2255 32.9045L9.73794 27.2659C9.07401 26.6822 8.69336 25.8517 8.69336 24.9846C8.69336 24.6263 8.76165 24.263 8.89823 23.9072L11.8397 16.1101C12.4038 14.6162 13.5103 13.4211 14.957 12.7451L19.8018 10.4815C20.4417 10.1827 20.854 9.53328 20.854 8.82686V7.33301H22.0706V8.8256C22.0706 10.003 21.3814 11.0854 20.3165 11.5829L15.4718 13.8465C14.3146 14.3871 13.4294 15.3429 12.9779 16.5379L10.0364 24.3364C9.95293 24.5554 9.91119 24.7719 9.91119 24.982C9.91119 25.5074 10.1338 25.991 10.5384 26.3468L17.0235 31.9829C17.1828 32.1209 17.4496 32.2854 17.8138 32.2854C17.953 32.2854 18.0883 32.2627 18.2185 32.2158L18.6257 33.3628C18.3627 33.4577 18.0895 33.5046 17.8126 33.5046Z" fill="black"/>
<path d="M31.1877 33.5046C30.9095 33.5046 30.6363 33.4577 30.3758 33.3653L30.783 32.2184C30.912 32.2652 31.0486 32.288 31.1877 32.288C31.5532 32.288 31.82 32.1234 31.9781 31.9854L38.4656 26.348C38.8678 25.9948 39.0904 25.51 39.0904 24.9846C39.0904 24.7744 39.0486 24.5566 38.9651 24.3402L36.0224 16.5405C35.5709 15.3441 34.6857 14.3883 33.5285 13.849L28.6837 11.5855C27.6177 11.0879 26.9297 10.0055 26.9297 8.82813V7.33301H28.1462V8.8256C28.1462 9.53201 28.5598 10.1815 29.1984 10.4802L34.0432 12.7438C35.4899 13.4186 36.5965 14.6149 37.1605 16.1088L40.1021 23.9072C40.2374 24.263 40.3056 24.625 40.3056 24.9833C40.3056 25.8505 39.9263 26.6822 39.2636 27.2633L32.7735 32.9033C32.3297 33.2919 31.7656 33.5046 31.1877 33.5046Z" fill="black"/>
<defs>
<radialGradient id="paint0_radial_909_745" cx="0" cy="0" r="1" gradientUnits="userSpaceOnUse" gradientTransform="translate(24.5 37.5) rotate(90) scale(6.3 6.60221)">
<stop offset="0.161458" stop-color="#E92D2D"/>
<stop offset="1" stop-color="white"/>
</radialGradient>
</defs>
</svg>
