<svg width="125" height="42" viewBox="0 0 125 42" fill="none" xmlns="http://www.w3.org/2000/svg">
<path d="M124.754 5.94025C124.785 7.05307 124.477 8.1496 123.871 9.08939C123.265 10.0292 122.387 10.7695 121.351 11.2154C120.315 11.6613 119.167 11.7926 118.055 11.5924C116.942 11.3923 115.916 10.8698 115.107 10.0919C114.298 9.31393 113.744 8.31601 113.514 7.22589C113.285 6.13577 113.392 5.0031 113.82 3.97293C114.249 2.94276 114.98 2.06201 115.92 1.44347C116.861 0.82493 117.967 0.496769 119.098 0.501015C119.833 0.48705 120.565 0.617254 121.249 0.884053C121.933 1.15085 122.556 1.54891 123.082 2.05508C123.609 2.56124 124.028 3.1654 124.314 3.8324C124.601 4.4994 124.751 5.21591 124.754 5.94025ZM114.808 5.94025C114.789 6.50791 114.887 7.07354 115.095 7.60311C115.304 8.13267 115.619 8.61523 116.022 9.02174C116.425 9.42825 116.907 9.75031 117.44 9.96854C117.973 10.1868 118.545 10.2967 119.122 10.2916C119.688 10.2889 120.249 10.174 120.769 9.95391C121.29 9.7338 121.761 9.41291 122.153 9.0103C122.545 8.60769 122.852 8.13157 123.053 7.61021C123.255 7.08885 123.349 6.53289 123.328 5.97534C123.358 5.40601 123.271 4.83652 123.071 4.30158C122.87 3.76664 122.562 3.27744 122.163 2.86381C121.764 2.45018 121.284 2.12077 120.752 1.89566C120.22 1.67055 119.647 1.55446 119.068 1.55446C118.489 1.55446 117.916 1.67055 117.384 1.89566C116.852 2.12077 116.372 2.45018 115.973 2.86381C115.575 3.27744 115.266 3.76664 115.065 4.30158C114.865 4.83652 114.778 5.40601 114.808 5.97534V5.94025ZM118.218 8.80608H116.935V3.35515C117.637 3.23338 118.349 3.17854 119.062 3.19139C119.729 3.13772 120.398 3.27588 120.987 3.58909C121.16 3.73284 121.298 3.91209 121.392 4.1142C121.487 4.31631 121.535 4.53636 121.534 4.75882C121.508 5.07008 121.377 5.36389 121.162 5.59301C120.946 5.82214 120.659 5.97327 120.345 6.02213V6.11571C120.619 6.22587 120.858 6.40689 121.035 6.63958C121.213 6.87228 121.324 7.14798 121.355 7.4375C121.416 7.91468 121.561 8.3778 121.783 8.80608H120.405C120.179 8.38783 120.018 7.93821 119.93 7.47259C119.834 6.87603 119.49 6.60699 118.741 6.60699H118.135L118.218 8.80608ZM118.218 5.718H118.824C119.537 5.718 120.108 5.48405 120.108 4.92258C120.108 4.36111 119.739 4.09208 118.92 4.09208C118.684 4.08866 118.449 4.11221 118.218 4.16226V5.718Z" fill="#F9F7F7"/>
<path d="M11.8012 34.7974V25.4395C11.8271 24.9362 11.745 24.4331 11.5603 23.9631C11.3757 23.493 11.0926 23.0665 10.7295 22.7112C10.3663 22.3559 9.93127 22.0799 9.45264 21.901C8.97401 21.7222 8.46249 21.6445 7.95135 21.673H4.94511V18.8891H7.83252C8.34498 18.9131 8.85683 18.8305 9.33463 18.6465C9.81244 18.4626 10.2455 18.1815 10.6054 17.8217C10.9654 17.4618 11.2442 17.0312 11.4236 16.5581C11.6031 16.0849 11.6791 15.5798 11.6468 15.0758V7.15673C11.6784 6.65011 11.6024 6.14256 11.4235 5.66651C11.2446 5.19047 10.9668 4.75639 10.6078 4.39201C10.2489 4.02764 9.81662 3.74098 9.33875 3.55036C8.86089 3.35973 8.34789 3.26933 7.83252 3.28493C7.34624 3.27343 6.86271 3.36002 6.4117 3.53938C5.96069 3.71874 5.55174 3.98707 5.21002 4.32785C4.86831 4.66863 4.60105 5.07465 4.42471 5.52092C4.24837 5.96719 4.16667 6.44426 4.18464 6.92278V12.3152H0.845703V6.92278C0.845703 2.81704 4.01829 0.500977 7.83252 0.500977C11.6468 0.500977 14.9619 2.93401 14.9619 7.15673V14.2687C15.0271 15.5581 14.668 16.8339 13.938 17.9065C13.2081 18.9791 12.1462 19.7913 10.9101 20.2226C12.1948 20.6521 13.3013 21.4838 14.0609 22.5905C14.8204 23.6973 15.1911 25.0183 15.1164 26.3519V34.8559C15.1164 39.0786 11.8844 41.4999 7.98699 41.4999C4.08959 41.4999 1.00017 39.1604 1.00017 35.0196V29.6506H4.30347V34.9728C4.27549 35.4561 4.34937 35.9398 4.52047 36.3936C4.69156 36.8474 4.95617 37.2614 5.29766 37.6097C5.63915 37.9579 6.05014 38.2329 6.50478 38.4172C6.95942 38.6016 7.44788 38.6913 7.93946 38.6809C8.46029 38.7052 8.98045 38.6207 9.46575 38.433C9.95106 38.2453 10.3905 37.9587 10.7553 37.5919C11.12 37.2251 11.4018 36.7865 11.5821 36.3048C11.7623 35.8232 11.837 35.3094 11.8012 34.7974Z" fill="#F9F7F7"/>
<path d="M30.5026 38.201C29.8229 39.2107 28.8968 40.0363 27.809 40.6024C26.7213 41.1685 25.5066 41.4569 24.2763 41.4412C23.6339 41.4709 22.9924 41.3662 22.3941 41.1341C21.7958 40.902 21.2542 40.5477 20.8051 40.0946C20.356 39.6414 20.0096 39.0997 19.7887 38.5052C19.5677 37.9106 19.4773 37.2767 19.5234 36.6453V31.44C19.5234 27.2173 22.4583 25.2521 26.1062 24.8427L30.4551 24.3164V18.6666C30.5021 18.1637 30.4383 17.6568 30.2681 17.1804C30.0979 16.7041 29.8252 16.2695 29.4688 15.9064C29.1123 15.5432 28.6804 15.2601 28.2027 15.0764C27.7249 14.8926 27.2124 14.8125 26.7003 14.8416C26.1868 14.8174 25.6738 14.9003 25.1952 15.0849C24.7165 15.2696 24.2829 15.5517 23.9227 15.9129C23.5626 16.274 23.284 16.7061 23.1054 17.1806C22.9267 17.6552 22.852 18.1616 22.8861 18.6666V21.4973H19.5828V18.6666C19.5828 14.4439 22.8148 12.0693 26.7122 12.0693C30.6096 12.0693 33.8416 14.4088 33.8416 18.6666V41.2072H30.5026V38.201ZM30.5026 27.1003L26.7478 27.5682C24.6328 27.8606 22.9336 29.0187 22.9336 31.44V35.885C22.9068 36.2458 22.9573 36.6082 23.0818 36.9487C23.2062 37.2891 23.4019 37.6001 23.6562 37.8614C23.9104 38.1227 24.2176 38.3286 24.5577 38.4656C24.8979 38.6027 25.2635 38.668 25.6309 38.6572C26.2724 38.6635 26.9088 38.5437 27.5027 38.3049C28.0967 38.0661 28.6362 37.7131 29.0899 37.2665C29.5435 36.8199 29.9022 36.2887 30.1447 35.704C30.3873 35.1193 30.509 34.4929 30.5026 33.8613V27.1003Z" fill="#F9F7F7"/>
<path d="M40.5441 12.3154H53.7097V41.2076H50.3589V15.0759H43.883V33.9319C43.883 38.7278 41.0075 41.4416 37.4785 41.4416V38.6693C39.1776 38.6693 40.5322 36.9381 40.5322 33.9319L40.5441 12.3154Z" fill="#F9F7F7"/>
<path d="M69.6785 38.201C68.998 39.2099 68.0717 40.035 66.9841 40.601C65.8965 41.1669 64.6823 41.4558 63.4522 41.4412C62.8098 41.4709 62.1683 41.3662 61.57 41.1341C60.9716 40.902 60.4301 40.5477 59.981 40.0946C59.5319 39.6414 59.1855 39.0997 58.9645 38.5052C58.7436 37.9106 58.6532 37.2767 58.6992 36.6453V31.44C58.6992 27.2173 61.6342 25.2521 65.282 24.8427L69.631 24.3164V18.6666C69.678 18.1637 69.6142 17.6568 69.444 17.1804C69.2738 16.7041 69.0011 16.2695 68.6447 15.9064C68.2882 15.5432 67.8563 15.2601 67.3785 15.0764C66.9007 14.8926 66.3883 14.8125 65.8762 14.8416C65.3631 14.8192 64.851 14.9034 64.3732 15.0887C63.8954 15.274 63.4626 15.5562 63.1028 15.917C62.7431 16.2777 62.4645 16.709 62.2851 17.1827C62.1058 17.6565 62.0297 18.162 62.0619 18.6666V21.4973H58.7586V18.6666C58.7586 14.4439 61.9906 12.0693 65.888 12.0693C69.7854 12.0693 73.0175 14.4088 73.0175 18.6666V41.2072H69.6785V38.201ZM69.6785 27.1003L65.9237 27.5682C63.8086 27.8606 62.1095 29.0187 62.1095 31.44V35.885C62.0827 36.2458 62.1332 36.6082 62.2576 36.9487C62.3821 37.2891 62.5778 37.6001 62.832 37.8614C63.0863 38.1227 63.3934 38.3286 63.7336 38.4656C64.0737 38.6027 64.4394 38.668 64.8068 38.6572C65.4483 38.6635 66.0846 38.5437 66.6786 38.3049C67.2725 38.0661 67.8121 37.7131 68.2658 37.2665C68.7194 36.8199 69.078 36.2887 69.3206 35.704C69.5632 35.1193 69.6849 34.4929 69.6785 33.8613V27.1003Z" fill="#F9F7F7"/>
<path d="M78.0918 12.3154H81.3119V32.6686H81.4307L89.2374 13.6957V12.3154H92.4813V41.2076H89.2493V20.8544L81.3119 39.8274V41.2076H78.0918V12.3154Z" fill="#F9F7F7"/>
<path d="M97.9941 12.3154H101.345V25.0186H108.985V12.3154H112.336V41.2076H108.985V27.8026H101.345V41.2076H97.9941V12.3154Z" fill="#F9F7F7"/>
</svg>
